mtllib ros_sandbox_visual.mtl
v 0.020000 3.100000 0.020000
v 0.020000 0.020000 0.020000
v 1.750000 2.250000 0.020000
v 0.020000 3.700000 0.020000
v -0.000000 3.100000 0.020000
v -0.000000 3.700000 0.020000
v 2.250000 2.250000 0.020000
v 2.250000 1.750000 0.020000
v 3.980000 3.980000 0.020000
v 0.020000 3.980000 0.020000
v 3.980000 0.020000 0.020000
v 1.750000 1.750000 0.020000
v 1.700000 0.020000 0.020000
v 2.300000 0.020000 0.020000
v 2.300000 0.000000 0.020000
v 1.700000 0.000000 0.020000
v 2.300000 -0.780000 0.020000
v 1.700000 -0.780000 0.020000
v -0.780000 3.100000 0.020000
v -0.780000 3.700000 0.020000
v 1.750000 1.750000 0.020000
v 2.250000 1.750000 0.020000
v 2.250000 2.250000 0.020000
v 1.750000 2.250000 0.020000
vt 0.176471 0.801217
vt 0.176471 0.176471
vt 0.527383 0.628803
vt 0.176471 0.922921
vt 0.172414 0.801217
vt 0.172414 0.922921
vt 0.628803 0.628803
vt 0.628803 0.527383
vt 0.979716 0.979716
vt 0.176471 0.979716
vt 0.979716 0.176471
vt 0.527383 0.527383
vt 0.517241 0.176471
vt 0.638945 0.176471
vt 0.638945 0.172414
vt 0.517241 0.172414
vt 0.638945 0.014199
vt 0.517241 0.014199
vt 0.014199 0.801217
vt 0.014199 0.922921
vt 0.527383 0.527383
vt 0.628803 0.527383
vt 0.628803 0.628803
vt 0.527383 0.628803
vn -0.0000 -0.0000 1.0000
vn -0.0000 -0.0000 1.0000
o sandbox_mesh_007
usemtl road_grass_crosswalks
s 0
f 1/1/1 2/2/1 3/3/1
f 1/1/1 3/3/1 4/4/1
f 5/5/1 1/1/1 6/6/1
f 1/1/1 4/4/1 6/6/1
f 7/7/1 8/8/1 9/9/1
f 7/7/1 9/9/1 10/10/1
f 8/8/1 11/11/1 9/9/1
f 8/8/1 12/12/1 11/11/1
f 2/2/1 13/13/1 12/12/1
f 2/2/1 12/12/1 3/3/1
f 12/12/1 13/13/1 14/14/1
f 12/12/1 14/14/1 11/11/1
f 13/13/1 15/15/1 14/14/1
f 13/13/1 16/16/1 15/15/1
f 17/17/1 15/15/1 16/16/1
f 18/18/1 17/17/1 16/16/1
f 3/3/1 7/7/1 10/10/1
f 3/3/1 10/10/1 4/4/1
f 19/19/1 5/5/1 6/6/1
f 20/20/1 19/19/1 6/6/1
o sandbox_mesh_044
usemtl road_grass_crosswalks
s 0
f 21/21/2 22/22/2 23/23/2 24/24/2
